<svg width="24" height="24" viewBox="0 0 24 24" fill="none" xmlns="http://www.w3.org/2000/svg">
<path d="M18.5567 18.2091C18.5567 18.8942 18.3015 19.4949 17.8917 19.9556C17.8868 19.961 17.8835 19.9676 17.882 19.9747C17.8758 20.0042 17.9022 20.0301 17.9314 20.0229C19.1131 19.7317 20.0686 18.7223 20.0686 17.3968V10.5251C20.0686 8.49375 18.934 6.61672 17.0921 5.60105L9.65524 1.5L8.18205 2.33356L15.5803 6.41331C17.4221 7.42897 18.5567 9.30601 18.5567 11.3373V18.2091Z" fill="url(#paint0_linear_10520_3175)"/>
<path d="M18.5567 18.2091C18.5567 18.8942 18.3015 19.4949 17.8917 19.9556C17.8868 19.961 17.8835 19.9676 17.882 19.9747C17.8758 20.0042 17.9022 20.0301 17.9314 20.0229C19.1131 19.7317 20.0686 18.7223 20.0686 17.3968V10.5251C20.0686 8.49375 18.934 6.61672 17.0921 5.60105L9.65524 1.5L8.18205 2.33356L15.5803 6.41331C17.4221 7.42897 18.5567 9.30601 18.5567 11.3373V18.2091Z" fill="url(#paint1_linear_10520_3175)"/>
<path d="M18.5567 18.2091C18.5567 18.8942 18.3015 19.4949 17.8917 19.9556C17.8868 19.961 17.8835 19.9676 17.882 19.9747C17.8758 20.0042 17.9022 20.0301 17.9314 20.0229C19.1131 19.7317 20.0686 18.7223 20.0686 17.3968V10.5251C20.0686 8.49375 18.934 6.61672 17.0921 5.60105L9.65524 1.5L8.18205 2.33356L15.5803 6.41331C17.4221 7.42897 18.5567 9.30601 18.5567 11.3373V18.2091Z" fill="url(#paint2_angular_10520_3175)" fill-opacity="0.2"/>
<path d="M18.5567 18.2091C18.5567 18.8942 18.3015 19.4949 17.8917 19.9556C17.8868 19.961 17.8835 19.9676 17.882 19.9747C17.8758 20.0042 17.9022 20.0301 17.9314 20.0229C19.1131 19.7317 20.0686 18.7223 20.0686 17.3968V10.5251C20.0686 8.49375 18.934 6.61672 17.0921 5.60105L9.65524 1.5L8.18205 2.33356L15.5803 6.41331C17.4221 7.42897 18.5567 9.30601 18.5567 11.3373V18.2091Z" fill="url(#paint3_angular_10520_3175)" fill-opacity="0.1"/>
<path d="M18.5567 18.2091C18.5567 18.8942 18.3015 19.4949 17.8917 19.9556C17.8868 19.961 17.8835 19.9676 17.882 19.9747C17.8758 20.0042 17.9022 20.0301 17.9314 20.0229C19.1131 19.7317 20.0686 18.7223 20.0686 17.3968V10.5251C20.0686 8.49375 18.934 6.61672 17.0921 5.60105L9.65524 1.5L8.18205 2.33356L15.5803 6.41331C17.4221 7.42897 18.5567 9.30601 18.5567 11.3373V18.2091Z" fill="url(#paint4_linear_10520_3175)" fill-opacity="0.2"/>
<path d="M16.478 19.3823V12.5106C16.478 10.4793 15.3434 8.60223 13.5015 7.58656L6.10327 3.50682L7.57647 2.67326L15.0134 6.77431C16.8552 7.78998 17.9898 9.66701 17.9898 11.6983V18.5701C17.9898 19.8956 17.0344 20.905 15.8526 21.1962C15.8234 21.2034 15.797 21.1774 15.8032 21.148C15.8047 21.1409 15.8081 21.1343 15.8129 21.1288C16.2227 20.6681 16.478 20.0674 16.478 19.3823Z" fill="url(#paint5_linear_10520_3175)"/>
<path d="M16.478 19.3823V12.5106C16.478 10.4793 15.3434 8.60223 13.5015 7.58656L6.10327 3.50682L7.57647 2.67326L15.0134 6.77431C16.8552 7.78998 17.9898 9.66701 17.9898 11.6983V18.5701C17.9898 19.8956 17.0344 20.905 15.8526 21.1962C15.8234 21.2034 15.797 21.1774 15.8032 21.148C15.8047 21.1409 15.8081 21.1343 15.8129 21.1288C16.2227 20.6681 16.478 20.0674 16.478 19.3823Z" fill="url(#paint6_linear_10520_3175)"/>
<path d="M16.478 19.3823V12.5106C16.478 10.4793 15.3434 8.60223 13.5015 7.58656L6.10327 3.50682L7.57647 2.67326L15.0134 6.77431C16.8552 7.78998 17.9898 9.66701 17.9898 11.6983V18.5701C17.9898 19.8956 17.0344 20.905 15.8526 21.1962C15.8234 21.2034 15.797 21.1774 15.8032 21.148C15.8047 21.1409 15.8081 21.1343 15.8129 21.1288C16.2227 20.6681 16.478 20.0674 16.478 19.3823Z" fill="url(#paint7_angular_10520_3175)" fill-opacity="0.2"/>
<path d="M16.478 19.3823V12.5106C16.478 10.4793 15.3434 8.60223 13.5015 7.58656L6.10327 3.50682L7.57647 2.67326L15.0134 6.77431C16.8552 7.78998 17.9898 9.66701 17.9898 11.6983V18.5701C17.9898 19.8956 17.0344 20.905 15.8526 21.1962C15.8234 21.2034 15.797 21.1774 15.8032 21.148C15.8047 21.1409 15.8081 21.1343 15.8129 21.1288C16.2227 20.6681 16.478 20.0674 16.478 19.3823Z" fill="url(#paint8_angular_10520_3175)" fill-opacity="0.1"/>
<path d="M16.478 19.3823V12.5106C16.478 10.4793 15.3434 8.60223 13.5015 7.58656L6.10327 3.50682L7.57647 2.67326L15.0134 6.77431C16.8552 7.78998 17.9898 9.66701 17.9898 11.6983V18.5701C17.9898 19.8956 17.0344 20.905 15.8526 21.1962C15.8234 21.2034 15.797 21.1774 15.8032 21.148C15.8047 21.1409 15.8081 21.1343 15.8129 21.1288C16.2227 20.6681 16.478 20.0674 16.478 19.3823Z" fill="url(#paint9_linear_10520_3175)" fill-opacity="0.2"/>
<path fill-rule="evenodd" clip-rule="evenodd" d="M3.93 4.73606L5.42239 3.89164L12.8593 7.99269C14.7011 9.00836 15.8357 10.8854 15.8357 12.9167V19.8223L15.8355 19.8222C15.8102 21.8867 13.4633 23.1697 11.5837 22.1332L4.84341 18.4163L3.93 17.9256V4.73606ZM14.3239 13.7504V17.7397L9.31593 14.9781V7.70611L11.3475 8.82639C13.1893 9.84206 14.3239 11.7191 14.3239 13.7504ZM7.42613 6.66398L8.18205 7.08083V15.6029L8.26141 15.6455L14.3239 18.9886V19.7604L7.43588 15.962L7.42613 15.9675V6.66398ZM6.19776 5.9866V16.6231L6.23328 16.6425L6.19776 16.6626L14.3146 21.1386C14.2468 21.4956 13.8203 21.6992 13.4735 21.508L5.44184 17.0789V5.56975L6.19776 5.9866Z" fill="url(#paint10_linear_10520_3175)"/>
<path fill-rule="evenodd" clip-rule="evenodd" d="M3.93 4.73606L5.42239 3.89164L12.8593 7.99269C14.7011 9.00836 15.8357 10.8854 15.8357 12.9167V19.8223L15.8355 19.8222C15.8102 21.8867 13.4633 23.1697 11.5837 22.1332L4.84341 18.4163L3.93 17.9256V4.73606ZM14.3239 13.7504V17.7397L9.31593 14.9781V7.70611L11.3475 8.82639C13.1893 9.84206 14.3239 11.7191 14.3239 13.7504ZM7.42613 6.66398L8.18205 7.08083V15.6029L8.26141 15.6455L14.3239 18.9886V19.7604L7.43588 15.962L7.42613 15.9675V6.66398ZM6.19776 5.9866V16.6231L6.23328 16.6425L6.19776 16.6626L14.3146 21.1386C14.2468 21.4956 13.8203 21.6992 13.4735 21.508L5.44184 17.0789V5.56975L6.19776 5.9866Z" fill="url(#paint11_linear_10520_3175)"/>
<path fill-rule="evenodd" clip-rule="evenodd" d="M3.93 4.73606L5.42239 3.89164L12.8593 7.99269C14.7011 9.00836 15.8357 10.8854 15.8357 12.9167V19.8223L15.8355 19.8222C15.8102 21.8867 13.4633 23.1697 11.5837 22.1332L4.84341 18.4163L3.93 17.9256V4.73606ZM14.3239 13.7504V17.7397L9.31593 14.9781V7.70611L11.3475 8.82639C13.1893 9.84206 14.3239 11.7191 14.3239 13.7504ZM7.42613 6.66398L8.18205 7.08083V15.6029L8.26141 15.6455L14.3239 18.9886V19.7604L7.43588 15.962L7.42613 15.9675V6.66398ZM6.19776 5.9866V16.6231L6.23328 16.6425L6.19776 16.6626L14.3146 21.1386C14.2468 21.4956 13.8203 21.6992 13.4735 21.508L5.44184 17.0789V5.56975L6.19776 5.9866Z" fill="url(#paint12_angular_10520_3175)" fill-opacity="0.2"/>
<path fill-rule="evenodd" clip-rule="evenodd" d="M3.93 4.73606L5.42239 3.89164L12.8593 7.99269C14.7011 9.00836 15.8357 10.8854 15.8357 12.9167V19.8223L15.8355 19.8222C15.8102 21.8867 13.4633 23.1697 11.5837 22.1332L4.84341 18.4163L3.93 17.9256V4.73606ZM14.3239 13.7504V17.7397L9.31593 14.9781V7.70611L11.3475 8.82639C13.1893 9.84206 14.3239 11.7191 14.3239 13.7504ZM7.42613 6.66398L8.18205 7.08083V15.6029L8.26141 15.6455L14.3239 18.9886V19.7604L7.43588 15.962L7.42613 15.9675V6.66398ZM6.19776 5.9866V16.6231L6.23328 16.6425L6.19776 16.6626L14.3146 21.1386C14.2468 21.4956 13.8203 21.6992 13.4735 21.508L5.44184 17.0789V5.56975L6.19776 5.9866Z" fill="url(#paint13_angular_10520_3175)" fill-opacity="0.1"/>
<path fill-rule="evenodd" clip-rule="evenodd" d="M3.93 4.73606L5.42239 3.89164L12.8593 7.99269C14.7011 9.00836 15.8357 10.8854 15.8357 12.9167V19.8223L15.8355 19.8222C15.8102 21.8867 13.4633 23.1697 11.5837 22.1332L4.84341 18.4163L3.93 17.9256V4.73606ZM14.3239 13.7504V17.7397L9.31593 14.9781V7.70611L11.3475 8.82639C13.1893 9.84206 14.3239 11.7191 14.3239 13.7504ZM7.42613 6.66398L8.18205 7.08083V15.6029L8.26141 15.6455L14.3239 18.9886V19.7604L7.43588 15.962L7.42613 15.9675V6.66398ZM6.19776 5.9866V16.6231L6.23328 16.6425L6.19776 16.6626L14.3146 21.1386C14.2468 21.4956 13.8203 21.6992 13.4735 21.508L5.44184 17.0789V5.56975L6.19776 5.9866Z" fill="url(#paint14_linear_10520_3175)" fill-opacity="0.2"/>
<defs>
<linearGradient id="paint0_linear_10520_3175" x1="3.66127" y1="12" x2="19.8886" y2="10.5493" gradientUnits="userSpaceOnUse">
<stop stop-color="#FF3873"/>
<stop offset="0.473958" stop-color="#711EFF"/>
<stop offset="1" stop-color="#3FE5FF"/>
</linearGradient>
<linearGradient id="paint1_linear_10520_3175" x1="4.93026" y1="2.46647" x2="16.2595" y2="12.0911" gradientUnits="userSpaceOnUse">
<stop stop-color="#F6F063"/>
<stop offset="1" stop-color="#E07774" stop-opacity="0"/>
</linearGradient>
<radialGradient id="paint2_angular_10520_3175" cx="0" cy="0" r="1" gradientUnits="userSpaceOnUse" gradientTransform="translate(4.35549 8.88205) rotate(65.584) scale(4.70424 4.03692)">
<stop offset="0.925861" stop-color="white"/>
<stop offset="1" stop-color="white" stop-opacity="0"/>
</radialGradient>
<radialGradient id="paint3_angular_10520_3175" cx="0" cy="0" r="1" gradientUnits="userSpaceOnUse" gradientTransform="translate(6.69939 6.93455) rotate(59.0024) scale(2.98585 4.07798)">
<stop offset="0.0864251" stop-color="white"/>
<stop offset="0.94115" stop-color="white" stop-opacity="0"/>
</radialGradient>
<linearGradient id="paint4_linear_10520_3175" x1="5.7775" y1="7.33279" x2="14.1853" y2="10.301" gradientUnits="userSpaceOnUse">
<stop stop-color="white"/>
<stop offset="1" stop-opacity="0"/>
</linearGradient>
<linearGradient id="paint5_linear_10520_3175" x1="3.66127" y1="12" x2="19.8886" y2="10.5493" gradientUnits="userSpaceOnUse">
<stop stop-color="#FF3873"/>
<stop offset="0.473958" stop-color="#711EFF"/>
<stop offset="1" stop-color="#3FE5FF"/>
</linearGradient>
<linearGradient id="paint6_linear_10520_3175" x1="4.93026" y1="2.46647" x2="16.2595" y2="12.0911" gradientUnits="userSpaceOnUse">
<stop stop-color="#F6F063"/>
<stop offset="1" stop-color="#E07774" stop-opacity="0"/>
</linearGradient>
<radialGradient id="paint7_angular_10520_3175" cx="0" cy="0" r="1" gradientUnits="userSpaceOnUse" gradientTransform="translate(4.35549 8.88205) rotate(65.584) scale(4.70424 4.03692)">
<stop offset="0.925861" stop-color="white"/>
<stop offset="1" stop-color="white" stop-opacity="0"/>
</radialGradient>
<radialGradient id="paint8_angular_10520_3175" cx="0" cy="0" r="1" gradientUnits="userSpaceOnUse" gradientTransform="translate(6.69939 6.93455) rotate(59.0024) scale(2.98585 4.07798)">
<stop offset="0.0864251" stop-color="white"/>
<stop offset="0.94115" stop-color="white" stop-opacity="0"/>
</radialGradient>
<linearGradient id="paint9_linear_10520_3175" x1="5.7775" y1="7.33279" x2="14.1853" y2="10.301" gradientUnits="userSpaceOnUse">
<stop stop-color="white"/>
<stop offset="1" stop-opacity="0"/>
</linearGradient>
<linearGradient id="paint10_linear_10520_3175" x1="3.66127" y1="12" x2="19.8886" y2="10.5493" gradientUnits="userSpaceOnUse">
<stop stop-color="#FF3873"/>
<stop offset="0.473958" stop-color="#711EFF"/>
<stop offset="1" stop-color="#3FE5FF"/>
</linearGradient>
<linearGradient id="paint11_linear_10520_3175" x1="4.93026" y1="2.46647" x2="16.2595" y2="12.0911" gradientUnits="userSpaceOnUse">
<stop stop-color="#F6F063"/>
<stop offset="1" stop-color="#E07774" stop-opacity="0"/>
</linearGradient>
<radialGradient id="paint12_angular_10520_3175" cx="0" cy="0" r="1" gradientUnits="userSpaceOnUse" gradientTransform="translate(4.35549 8.88205) rotate(65.584) scale(4.70424 4.03692)">
<stop offset="0.925861" stop-color="white"/>
<stop offset="1" stop-color="white" stop-opacity="0"/>
</radialGradient>
<radialGradient id="paint13_angular_10520_3175" cx="0" cy="0" r="1" gradientUnits="userSpaceOnUse" gradientTransform="translate(6.69939 6.93455) rotate(59.0024) scale(2.98585 4.07798)">
<stop offset="0.0864251" stop-color="white"/>
<stop offset="0.94115" stop-color="white" stop-opacity="0"/>
</radialGradient>
<linearGradient id="paint14_linear_10520_3175" x1="5.7775" y1="7.33279" x2="14.1853" y2="10.301" gradientUnits="userSpaceOnUse">
<stop stop-color="white"/>
<stop offset="1" stop-opacity="0"/>
</linearGradient>
</defs>
</svg>
