<svg width="25" height="24" viewBox="0 0 25 24" fill="none" xmlns="http://www.w3.org/2000/svg">
<g clip-path="url(#clip0_976_5869)">
<path fill-rule="evenodd" clip-rule="evenodd" d="M12.5 20.5C17.1944 20.5 21 16.6944 21 12C21 7.30558 17.1944 3.5 12.5 3.5C7.80558 3.5 4 7.30558 4 12C4 16.6944 7.80558 20.5 12.5 20.5ZM12.5 22C18.0228 22 22.5 17.5228 22.5 12C22.5 6.47715 18.0228 2 12.5 2C6.97715 2 2.5 6.47715 2.5 12C2.5 17.5228 6.97715 22 12.5 22Z" fill="url(#paint0_radial_976_5869)"/>
<path fill-rule="evenodd" clip-rule="evenodd" d="M14.2024 15.9003C14.6162 15.5368 15 14.9092 15 13.7836C15 13.622 14.9388 13.2831 14.7386 12.7462C14.5485 12.2364 14.2729 11.651 13.9441 11.0342C13.5015 10.2038 12.9876 9.36234 12.5158 8.63905C12.0414 9.36023 11.5215 10.1915 11.0719 11.0164C10.7391 11.627 10.4597 12.2072 10.2669 12.7174C10.0651 13.2512 10 13.6008 10 13.7836C10 14.9092 10.3838 15.5368 10.7976 15.9003C11.2482 16.2962 11.8767 16.5002 12.5 16.5002C13.1233 16.5002 13.7518 16.2962 14.2024 15.9003ZM16.5 13.7836C16.5 16.8113 14.3462 18.0002 12.5 18.0002C10.6538 18.0002 8.5 16.8113 8.5 13.7836C8.5 11.9825 10.7068 8.60542 11.9178 6.84088C12.2049 6.42269 12.8121 6.41096 13.1026 6.82674C14.3468 8.60755 16.5 12.0656 16.5 13.7836Z" fill="url(#paint1_radial_976_5869)"/>
</g>
<defs>
<radialGradient id="paint0_radial_976_5869" cx="0" cy="0" r="1" gradientUnits="userSpaceOnUse" gradientTransform="translate(12.506 12.4693) rotate(40.1482) scale(11.8282 473128)">
<stop stop-color="#0AB8DF"/>
<stop offset="0.745" stop-color="#D867EA"/>
<stop offset="0.87" stop-color="#FDED5D"/>
<stop offset="1" stop-color="#00295F"/>
</radialGradient>
<radialGradient id="paint1_radial_976_5869" cx="0" cy="0" r="1" gradientUnits="userSpaceOnUse" gradientTransform="translate(12.8763 3.09202) rotate(90.8971) scale(23.6473 659202)">
<stop stop-color="#132236"/>
<stop offset="0.41" stop-color="#F3ABFF"/>
<stop offset="0.622104" stop-color="#69EBFF"/>
<stop offset="0.845" stop-color="#132236"/>
</radialGradient>
<clipPath id="clip0_976_5869">
<rect width="24" height="24" fill="white" transform="translate(0.5)"/>
</clipPath>
</defs>
</svg>
